/* XPM */
static char *_228f8e9ec654c73fccb36984fe60726RSEj0zq4MjKC4jBD[] = {
/* columns rows colors chars-per-pixel */
"32 32 212 2 ",
"   c #292723",
".  c #312D24",
"X  c #3D382E",
"o  c #363732",
"O  c #454139",
"+  c #53493D",
"@  c #4E5045",
"#  c #53534A",
"$  c #505247",
"%  c #444F56",
"&  c #4C545B",
"*  c #46525D",
"=  c #5C5B53",
"-  c #565859",
";  c #4C4744",
":  c #625E59",
">  c #645D55",
",  c #63615B",
"<  c #69625B",
"1  c #474F62",
"2  c #4D5564",
"3  c #4B5C6B",
"4  c #515A63",
"5  c #535D6A",
"6  c #545760",
"7  c #4B5B73",
"8  c #605F64",
"9  c #5C6069",
"0  c #546373",
"q  c #59677E",
"w  c #5C6B7B",
"e  c #596676",
"r  c #6C6A65",
"t  c #6B6B6B",
"y  c #64676A",
"u  c #716D66",
"i  c #6F716B",
"p  c #75746C",
"a  c #7B7469",
"s  c #75786F",
"d  c #656D74",
"f  c #68737D",
"g  c #747472",
"h  c #7D7974",
"j  c #7C7A77",
"k  c #817C75",
"l  c #827E7B",
"z  c #7E8178",
"x  c #84837C",
"c  c #8A877E",
"v  c #978B7D",
"b  c #5C6B81",
"n  c #646F81",
"m  c #657284",
"M  c #667488",
"N  c #6C778A",
"B  c #6C7885",
"V  c #797E86",
"C  c #717C8B",
"Z  c #767F86",
"A  c #757F91",
"S  c #7C838C",
"D  c #758191",
"F  c #7C8995",
"G  c #7E8A98",
"H  c #8D8883",
"J  c #84878B",
"K  c #8A8A85",
"L  c #938D85",
"P  c #918D8B",
"I  c #95928B",
"U  c #9B948B",
"Y  c #9B9185",
"T  c #838C95",
"R  c #848D9A",
"E  c #8B8D93",
"W  c #83929C",
"Q  c #8C939B",
"!  c #939295",
"~  c #9B9592",
"^  c #9E9991",
"/  c #91949B",
"(  c #96999E",
")  c #9D9C9C",
"_  c #A49C93",
"`  c #A49E98",
"'  c #AAA39B",
"]  c #A9A49A",
"[  c #8F9AA4",
"{  c #8996A2",
"}  c #949CA4",
"|  c #999EA5",
" . c #9CA3A6",
".. c #9DA4AB",
"X. c #98A4AA",
"o. c #9EAAB0",
"O. c #9DA7B0",
"+. c #A2A2A6",
"@. c #AAA6A0",
"#. c #A3A4AA",
"$. c #ACABAC",
"%. c #A6ABA8",
"&. c #B4ACA4",
"*. c #B2ADA9",
"=. c #AFB2AB",
"-. c #B4B0A7",
";. c #BCB4AC",
":. c #B5B1AE",
">. c #A4ADB4",
",. c #A4AEB8",
"<. c #A6B1B4",
"1. c #ABB2B6",
"2. c #ABB6BA",
"3. c #AEB9BC",
"4. c #A7B0B9",
"5. c #BDB9B5",
"6. c #B3B6BB",
"7. c #B3BBBD",
"8. c #BCBABA",
"9. c #B5B5B5",
"0. c #C3BDB5",
"q. c #C4BEB9",
"w. c #BEC0BD",
"e. c #C6C2BD",
"r. c #CCC5BD",
"t. c #D1C7BD",
"y. c #B6BEC1",
"u. c #BCBDC2",
"i. c #BFC8C6",
"p. c #B9C3C7",
"a. c #BDCAD4",
"s. c #B7C9D7",
"d. c #BED1DF",
"f. c #BFD2E1",
"g. c #C3C5C3",
"h. c #CDC9C4",
"j. c #C3C6CA",
"k. c #C3CACB",
"l. c #CBCCCC",
"z. c #CDC6C2",
"x. c #D3CDC5",
"c. c #D7CFC7",
"v. c #CFD4CE",
"b. c #D4D4CD",
"n. c #DAD3CC",
"m. c #D8D4CB",
"M. c #C2CCD5",
"N. c #C6D1D4",
"B. c #C3D1DC",
"V. c #CAD4DA",
"C. c #CBD5D6",
"Z. c #D3D4D4",
"A. c #DAD6D2",
"S. c #D7D9D5",
"D. c #DBD9D4",
"F. c #D2D6DA",
"G. c #D5DBDC",
"H. c #DCDCDB",
"J. c #E1D8CF",
"K. c #E3DCD4",
"L. c #E3DED9",
"P. c #E8DED2",
"I. c #E4E1DC",
"U. c #EBE5DD",
"Y. c #E6E4DB",
"T. c #F0E6DC",
"R. c #C9D7E3",
"E. c #D3DBE5",
"W. c #DEDEE1",
"Q. c #D5DDEA",
"!. c #D8DEEA",
"~. c #E0DEE1",
"^. c #DCE2E4",
"/. c #DCE2EA",
"(. c #DAE5E6",
"). c #DDE6F1",
"_. c #DDEBF3",
"`. c #E4E4E3",
"'. c #E9E5E1",
"]. c #E6E8E5",
"[. c #EDEBE5",
"{. c #E2E5EB",
"}. c #E5EAEB",
"|. c #ECECEB",
" X c #F2ECE4",
".X c #F8EFE6",
"XX c #F2ECEB",
"oX c #F1E7E5",
"OX c #EDF0ED",
"+X c #E6F1ED",
"@X c #F4F1EC",
"#X c #F9F4ED",
"$X c #FCF8EF",
"%X c #E3ECF3",
"&X c #EBEEF2",
"*X c #EFEFFB",
"=X c #F3EFF2",
"-X c #F0EEF9",
";X c #ECF2F2",
":X c #EDF3F9",
">X c #F5F5F6",
",X c #F3F3F3",
"<X c #FBF5F4",
"1X c #FCFAF5",
"2X c #F6F6F9",
"3X c #F4F4FC",
"4X c #FAF6F9",
"5X c #F9F7FD",
"6X c #F9F9FA",
"7X c #FDFDFE",
"8X c #FAF9FE",
"9X c #F5F9F7",
/* pixels */
">X7X7X7X7X7X8X5X7X-X3X*X3X:X&X%X).Q.E.R./.E./.{.W.`.`.,X9X;X+X+X",
",X6X6X>X>X6X6X8X3X3X5X3X3X:X&X{./.E.Q.E./.!././.W.W.,X7X;X{.^.^.",
",X8X6X>X>X>X2X4X5X8X3X*X,X&X}.^./.F.E./././.(.}.}.W.>X2X^.F.C.F.",
"&X,X9X>X6X6X>X>X5X3X=X3X,X|.=X|.}.(.G.(.^./.^.}.|.`.2X,X{.^.N.M.",
"{.}.}.&X>X6X4X6X4X,X,X4X=XXX[.L.g.G.^.^.{.{.}.&X&X,X2X}.{./.M.M.",
"%X%X}.}.&X,X>X>X4X4X<XXXXX#XK.z.g %.|.^.}.;X6X>X2X7X,XH.F.V.p.a.",
"_.%X%X%X&X;XOX,X,X4X=XXX<XoX&.' O r ,X|.|.,X>X|.|.>X|.W.F.M.p.a.",
"R.E.).%X:X:X;X>X,X4XXXXX<Xz.> < . o |.OX;X,X,X,XXX|.`.`.G.V.E./.",
"d.d.R._.).(.,X6X6X,X<X@X<Xe.> <     `.|.`.,X@X|.[.I.@X|.^.F.;X(.",
"s.d.B.B.V.G.{.}.|.1X,X@X1XU.n.' ; = q.|.,X|.[.#XXX[.@X>X@X].(.k.",
"s.f.a.M.V.C.G.}.,X>XXX@XA..X1XU.5.) ! +.S.|.[.[.#X#X X@X@X,X^.p.",
"s.s.p.a.N.C.^.9X|.,XXXb.' U..XJ.` ~ P j $.[.1X X X XU.I.].,X}.j.",
"s.a.B.N.N.G.}.|.#XY.n.&.' P.P.&.L ~ l g j @.x.$X@XU.U.n.b.Z.Z.7.",
"B.a.M.i.i.H.OX@X[.;.&._ ' P.0.U I H k u j H ^ A. XU.@XD.A.l.u.+.",
"M.V./.^.^.|.I.m.-.^ ' ' &.c.v a a p c p h c L _ ;.x.n.5.l.~.j.+.",
"F.&X{.w.5.z.*.U U ` ' t.T.Y + O X X # ' ^ x L L L -.L # l l.j.#.",
"@X'.e.= r U -.` ` ` ;..X.Xr.;.L u O . ]  XU L ^ *.] ;.-.k e.Z.$.",
" X.X' U K.;.' q.;.&. X@XU.n.m.h.H H u a  XK.;.5.h.~ e.I.[.S.S.u.",
"@XI.I.D.@XU.' ;.x.L. X<XY.r.x.5.P h h = 0.#XL.e.*.) g.b.S.l.j.7.",
"].1XH.Z.L.'.H.q.'. XU.U.K.r.c.0.I l r = ] [.I.S.$.$.w.v.g.k.6.>.",
"Z.G.H.l.l.S.H.<X[.I.[.Y.x.h. Xe.K x , # I I.H.H.9.%.9.i.p.p.4.| ",
"N.7.j.l.F.S.H.H.'.'.L.[.x.K.c.` x r r = x b.H.j.#.#.1.7.2.2.,.[ ",
"3.7.y.y.l.Z.H.I.XX'.I.L.c.U.^ L r r p $ z =.$.| } }  .7.y.<.[ F ",
"3.<.7.p.j.S.I.].[.Y..X XI.&.L h = h s @ s )  .( / ..<.<.3.O.{ D ",
"2.2.7.y.k.H.|.[.I.L. X Xr._ L > , x i $ p P / } } }  .>.3.>.R C ",
"2.2.7.y.j.G.I.H.A.L.L.I.;.I k : r j t # i K / / Q Q Q  .o.| G C ",
"O.o.<.7.u.l.S.S.c.I.n.e.@.U l : t g r - i J Q R R R R Q Q T A N ",
"} X.>.3.y.j.S.I.D.l.e.8.:.P g - 8 y y - g S T F R R T F S C B B ",
"{ [ X.>.1.6.u.l.S.g.8.$.! g t - 6 9 - & f Z C D A D C B B f n M ",
"W W W } ....+.#.8.g.6.( t t y & 2 5 & % d f n N M M m f w e w m ",
"W W R R Q Q E ! ( +.#.| V d 4 4 2 2 * % 0 e q q q q e 0 0 0 0 b ",
"F G F S S Z Z J E ! / S S d 4 2 2 1 * * 5 0 q 7 7 7 3 3 3 3 0 b "
};
