/* XPM */
static char *b74704abd89a459ade78a760f8c0439aPizI9g6grcVHVSX4[] = {
/* columns rows colors chars-per-pixel */
"32 32 212 2 ",
"   c #2F0207",
".  c #370E13",
"X  c #300608",
"o  c #470000",
"O  c #5F0A0F",
"+  c #5D0B13",
"@  c #5F1A1F",
"#  c #531110",
"$  c #73080C",
"%  c #730308",
"&  c #650D12",
"*  c #690E16",
"=  c #740C13",
"-  c #7C0C15",
";  c #750F1A",
":  c #65191E",
">  c #6A161C",
",  c #75141A",
"<  c #7C1518",
"1  c #73191C",
"2  c #7B1B1D",
"3  c #7A1012",
"4  c #5E1C21",
"5  c #631B23",
"6  c #761B23",
"7  c #7D1D24",
"8  c #791E29",
"9  c #592426",
"0  c #5F3235",
"q  c #4B2C31",
"w  c #652126",
"e  c #792529",
"r  c #77272A",
"t  c #782A32",
"y  c #6D3332",
"u  c #702F34",
"i  c #3C5700",
"p  c #3B6700",
"a  c #476C03",
"s  c #4E6F06",
"d  c #4B7400",
"f  c #527C06",
"g  c #50691B",
"h  c #66403F",
"j  c #71763E",
"k  c #764547",
"l  c #6C534F",
"z  c #794F50",
"x  c #7A534E",
"c  c #766162",
"v  c #8B0004",
"b  c #9E0404",
"n  c #9C070D",
"m  c #880D18",
"M  c #9E0A16",
"N  c #9F0E1A",
"B  c #980C16",
"V  c #831316",
"C  c #8C1217",
"Z  c #84141B",
"A  c #8C131C",
"S  c #85191F",
"D  c #94141B",
"F  c #9B131C",
"G  c #961319",
"H  c #A60409",
"J  c #A40C15",
"K  c #A60C18",
"L  c #B40B1B",
"P  c #A3131D",
"I  c #A7131B",
"U  c #B91B1E",
"Y  c #95221D",
"T  c #8D1623",
"R  c #841C22",
"E  c #891922",
"W  c #931C21",
"Q  c #981A25",
"!  c #A71D25",
"~  c #B31E26",
"^  c #872324",
"/  c #9A2127",
"(  c #873538",
")  c #963936",
"_  c #8D2B31",
"`  c #A5262B",
"'  c #AC252B",
"]  c #A72A29",
"[  c #B8262A",
"{  c #B7312E",
"}  c #B32D30",
"|  c #B92C34",
" . c #AE3E3A",
".. c #B93539",
"X. c #CB1A10",
"o. c #DC1B19",
"O. c #D8100C",
"+. c #E01518",
"@. c #D1290F",
"#. c #DD2B1F",
"$. c #CA2A1C",
"%. c #C8272A",
"&. c #D72927",
"*. c #C82735",
"=. c #C83336",
"-. c #D73832",
";. c #FB392D",
":. c #E83A35",
">. c #E72C25",
",. c #D8453B",
"<. c #E54239",
"1. c #9F3F43",
"2. c #CE3844",
"3. c #89594B",
"4. c #A1504F",
"5. c #A34E53",
"6. c #AA5D54",
"7. c #8C6767",
"8. c #856B6A",
"9. c #8B7676",
"0. c #997976",
"q. c #AE6E6E",
"w. c #B96E69",
"e. c #D14640",
"r. c #D8554C",
"t. c #C15054",
"y. c #DE595C",
"u. c #D8545F",
"i. c #E04E5B",
"p. c #EF4E46",
"a. c #F96859",
"s. c #DC6F72",
"d. c #CD6F6C",
"f. c #F8676A",
"g. c #ED6F70",
"h. c #5A8B00",
"j. c #6A9510",
"k. c #71A111",
"l. c #658626",
"z. c #799725",
"x. c #789640",
"c. c #829A28",
"v. c #8BA834",
"b. c #849C50",
"n. c #96AF5E",
"m. c #8F8D71",
"M. c #A9807C",
"N. c #91A168",
"B. c #99B07A",
"V. c #B6AC74",
"C. c #E28A7C",
"Z. c #CE7980",
"A. c #F47B80",
"S. c #978284",
"D. c #A68888",
"F. c #AD9A89",
"G. c #AC9D9A",
"H. c #B69896",
"J. c #B89798",
"K. c #B18B8F",
"L. c #B1BC91",
"P. c #ACBA89",
"I. c #B8B2AC",
"U. c #D19B95",
"Y. c #E88687",
"T. c #E8958E",
"R. c #EB9796",
"E. c #F1A49C",
"W. c #C9AAAB",
"Q. c #EFA7A8",
"!. c #CED39D",
"~. c #CECD8F",
"^. c #C2D4A4",
"/. c #F6C8BB",
"(. c #D9E4BC",
"). c #E0F1BB",
"_. c #D4C7C9",
"`. c #DBD8DA",
"'. c #E2CCCB",
"]. c #E1C3C3",
"[. c #FBCDC9",
"{. c #FCD3CB",
"}. c #E7D8DA",
"|. c #FFDEDF",
" X c #FFDFD3",
".X c #DEE9C5",
"XX c #F2E9C7",
"oX c #EEE5DF",
"OX c #E3E2DD",
"+X c #FDE5D9",
"@X c #ECF3C7",
"#X c #EEEDEE",
"$X c #E4E7E4",
"%X c #F4EBED",
"&X c #F9E9E5",
"*X c #E9F9EE",
"=X c #FEF3EC",
"-X c #FCFDEE",
";X c #F9F9E6",
":X c #F2EFF3",
">X c #FAEDFC",
",X c #ECFCF4",
"<X c #EDFFFC",
"1X c #E8F6F5",
"2X c #F5F4F5",
"3X c #FCF5F3",
"4X c #F4FAF4",
"5X c #FDFCF4",
"6X c #F5F5FA",
"7X c #FDF6FB",
"8X c #F4FDFB",
"9X c #FEFEFE",
/* pixels */
"9X9X9X9X9X9X9X9X9X9X2X9X9X>X9X9X9X9X5X-X5X5X-X5X9X9X9X9X9X9X9X9X",
"9X9X9X9X9X9X9X9X7X6X9X8X6X9X:X5X3X;X(.P.N.N.L..X9X9X9X9X9X9X9X9X",
"9X9X9X9X9X9X9X9X9X9X9X2X9X9X5X-X;XB.g a s i g N.9X9X9X9X9X9X9X9X",
"9X9X9X9X9X9X9X9X#X9XOX9X6X9X5X.Xl.p p h.j.f b.).9X9X9X9X9X9X9X9X",
"9X9X9X9X9X9X9X9X7X9X9X}.9X3X-XN.a j.k.f d x.^.-X9X9X9X9X9X9X9X9X",
"9X9X9X9X9X9X9X9X9X$X9XS._.&XXXj c.v.z.l.n.(.5X9X9X9X9X9X9X9X9X9X",
"9X9X9X9X9X9X9X9X8X9XoX}.D.5XXX!.V.~.!.@X;X5X3X6X9X9X9X9X9X9X9X9X",
"9X9X9X9X9X9X9X9X,X9X5X7XW.0.V.V.F.F.G.I.`.3X9X9X9X9X9X9X9X9X9X9X",
"5X<X<X9X7X9X,X9X3X|.{.W.3.# $ F V = ( q.M.m.I.5X5X9X,X8X9X:X9X9X",
"5X,X<X9X7X9X5X[.s.5.4.w.6.( ) t.1.( ( ( y 9 h 7.'.5X9X8X9X2X5X4X",
"9X8X9X9X6X5X Xs.[ J G / ^ ^ ^ 2 , > & O + : w t 7._.9X#X9X9X5X9X",
"8X9X9X9X8X;XT.%.#.&.=.' N F W 3 % % $ = , 7 8 6 9 0.3X2X9X9X9X9X",
"<X9X7X9X8X/.r.+.p.,.r.y.=.L I ' P N F T Z ; * * : k '.9X9X9X9X8X",
"8X9X>X8X5XE.-.;.f.g.C.Y.u.*.L H L J M F C = , e 8 4 H.9X9X6X9X6X",
"9X9X6X8X=XA.&.;.g.R././.Y.i.%.H J J N B m - < 7 R : 7.9X9X9X9X9X",
"5X3X9X<X|.f.o.@.g.R.+X5XQ...b b v B F B C A m m Z t z 3X9X9X2X9X",
"9X7X9X<X+Xf.O.O.#.<.a.a.p.U H n n M F G C V Z R Z t x oX9X9X6X9X",
"8X9X9X<X=Xy.o.o.X.$.,.,.%.J n J M P P D C V Z S V e k 3X9X9X9X9X",
"3X9X9X,X5Xd.&.>.:.,.,.,.=.U I ! P P Q F C Z Z R T e x 9X5X9X9X6X",
"3X9X9X4X5XT.=.:.<.,.e.e.=.~ P G F F F D A A S R _ : D.9X6X3X9X9X",
"9X9X9X9X3X[. .-.%.{ { { | ~ F C D D D A T R R R ^ @ ].9X8X5X9X9X",
"9X9X9X9X%X=X6.*.=.} ' ' ' ! Q W C C Z Z S R R 7 5 k =X9X9X9X3X9X",
"5X8X6X9X7X-XU.*.| } ` ! P F D V V V < < 2 2 6 6 u J.9X8X8X9X7X9X",
"=X8X:X9X9X*X{.2.' ] ` ` ! ! W < < < < , , 1 1 1 k =X9X8X*X9X9X9X",
"8X9X9X9X9X9X%X_.Y ` ` Q W W R 1 7 $ - R , 6 t w `.#X9X9X9X9X9X9X",
"9X9X9X9X9X9X9X2Xd.) = A / T - - & * & 6 8 o 9 U.#X9X9X9X9X9X9X9X",
"9X9X9X8X6X9X9X9X&XK.u e _ Q T Q w 5 5 4 # 0 H.3X9X9X9X9X9X9X9X9X",
"2X9X9X9X8X9X9X8X9X&XK.k 5 5 + o X   . . q G.5X5X9X9X9X9X9X9X9X9X",
"9X9X9X9X9X9X9X6X6X9X%XW.D.S.9.l c 8.c 9._.#X$X,X9X8X8X9X9X9X9X9X",
"9X9X9X9X9X9X9X9X6X9X9X9X9X9X8X4X9X5X5X9X9X9X6X9X9X9X9X9X9X9X9X9X",
"9X9X5X5X9X9X9X9X9X9X3X7X7X6X9X9X9X4X9X9X$X6X9X9X9X9X9X9X9X9X9X9X",
"9X9X9X9X9X9X9X9X5X5X9X9X9X9X7X9X4X9X4X4X9X9X7X9X9X9X9X9X9X8X9X9X"
};
