/* XPM */
static char *dc66445c3790462cafc78a491110bef4BHqh7fnD8W3kUQ9k[] = {
/* columns rows colors chars-per-pixel */
"32 32 235 2 ",
"   c #02030C",
".  c #080A0E",
"X  c #0B0B1A",
"o  c #050811",
"O  c #0F111C",
"+  c #13151C",
"@  c #070C26",
"#  c #091527",
"$  c #141526",
"%  c #131924",
"&  c #12162A",
"*  c #161B2B",
"=  c #1C1C2A",
"-  c #0C1B3E",
";  c #0B1638",
":  c #141D35",
">  c #141C37",
",  c #050D31",
"<  c #19252C",
"1  c #182637",
"2  c #232426",
"3  c #242433",
"4  c #272B37",
"5  c #2F323D",
"6  c #2A3035",
"7  c #383B30",
"8  c #2B332B",
"9  c #3A4C32",
"0  c #334730",
"q  c #50572A",
"w  c #47483C",
"e  c #445734",
"r  c #4E5934",
"t  c #4F643D",
"y  c #596738",
"u  c #5B622F",
"i  c #626737",
"p  c #62703D",
"a  c #0D1848",
"s  c #131D41",
"d  c #171E4A",
"f  c #101F5A",
"g  c #152244",
"h  c #1C2547",
"j  c #16224D",
"k  c #1C244B",
"l  c #1C2B4C",
"z  c #1E2944",
"x  c #152353",
"c  c #16235A",
"v  c #19265A",
"b  c #1A2855",
"n  c #1F305D",
"m  c #262D46",
"M  c #2A374A",
"N  c #373C47",
"B  c #222E54",
"V  c #222C5B",
"C  c #243254",
"Z  c #2C3453",
"A  c #25325C",
"S  c #2D3A5C",
"D  c #333D5E",
"F  c #333D56",
"G  c #1C2B62",
"H  c #1E2969",
"J  c #222D67",
"K  c #233363",
"L  c #2A3563",
"P  c #2A356A",
"I  c #2C3C6B",
"U  c #263666",
"Y  c #32386A",
"T  c #2E3C71",
"R  c #2C3472",
"E  c #323E76",
"W  c #37474B",
"Q  c #3B4358",
"!  c #374C49",
"~  c #394468",
"^  c #384675",
"/  c #2E446D",
"(  c #4B4B44",
")  c #454A49",
"_  c #475747",
"`  c #565C47",
"'  c #484C58",
"]  c #4E5958",
"[  c #56575A",
"{  c #605D4C",
"}  c #4F6341",
"|  c #576545",
" . c #586C54",
".. c #676F4C",
"X. c #61714A",
"o. c #6B7A49",
"O. c #757F48",
"+. c #657658",
"@. c #757B57",
"#. c #666959",
"$. c #434F66",
"%. c #4B546E",
"&. c #495669",
"*. c #545B63",
"=. c #555868",
"-. c #464E75",
";. c #49507E",
":. c #4B5773",
">. c #545D7B",
",. c #545E77",
"<. c #5C676B",
"1. c #55647C",
"2. c #5A6372",
"3. c #656867",
"4. c #6C7567",
"5. c #777B66",
"6. c #656B73",
"7. c #676976",
"8. c #6D737D",
"9. c #737776",
"0. c #79824B",
"q. c #798457",
"w. c #6E8251",
"e. c #798864",
"r. c #798477",
"t. c #8E905C",
"y. c #808656",
"u. c #829369",
"i. c #848777",
"p. c #8A9676",
"a. c #919476",
"s. c #8A8A6A",
"d. c #9CA679",
"f. c #99A263",
"g. c #A7AF76",
"h. c #4A5389",
"j. c #585E80",
"k. c #5A6484",
"l. c #586295",
"z. c #646D8D",
"x. c #656D8B",
"c. c #6A7384",
"v. c #6D758A",
"b. c #687887",
"n. c #777B88",
"m. c #6B729A",
"M. c #737B92",
"N. c #707690",
"B. c #636C97",
"V. c #6871A2",
"C. c #798498",
"Z. c #7A838A",
"A. c #7B84A5",
"S. c #7A82B5",
"D. c #84858C",
"F. c #868987",
"G. c #8E9687",
"H. c #969A8D",
"J. c #868A93",
"K. c #868997",
"L. c #8D939C",
"P. c #8D9496",
"I. c #989A96",
"U. c #938E88",
"Y. c #9BA49A",
"T. c #9EA88F",
"R. c #A3A584",
"E. c #A5AD9E",
"W. c #868CA0",
"Q. c #8A95A7",
"!. c #939AAB",
"~. c #9A9EAB",
"^. c #9799A2",
"/. c #8F97B4",
"(. c #9CA2A5",
"). c #9DA6B7",
"_. c #A5A7AA",
"`. c #ACB4A7",
"'. c #B3BBA5",
"]. c #A8ABB8",
"[. c #AEB2B6",
"{. c #B4B5BC",
"}. c #BBBDBB",
"|. c #B4B8B7",
" X c #C3BFBE",
".X c #BFC4BE",
"XX c #C4CBBA",
"oX c #9FA4C2",
"OX c #A7ADC3",
"+X c #B7BBC5",
"@X c #B2B8D2",
"#X c #AFBACD",
"$X c #BEC2C9",
"%X c #C3C5C9",
"&X c #C6C7C7",
"*X c #CFD2C7",
"=X c #CBCFD8",
"-X c #CAD1D3",
";X c #D0D2D5",
":X c #D1D2DB",
">X c #D7DAD9",
",X c #D7DACF",
"<X c #DDE2DE",
"1X c #ECEDDD",
"2X c #CDD4ED",
"3X c #D5D9E3",
"4X c #C2C7E4",
"5X c #DDE4F4",
"6X c #E6EDE6",
"7X c #ECEDE5",
"8X c #E7E9EA",
"9X c #ECEDEB",
"0X c #E3E6E6",
"qX c #F2EEEC",
"wX c #F4EDE7",
"eX c #EDF2EC",
"rX c #EBF1E7",
"tX c #F2F2E5",
"yX c #F3F2ED",
"uX c #F4F9EE",
"iX c #FAF6EB",
"pX c #EDECF2",
"aX c #E7EAF6",
"sX c #F2EEF4",
"dX c #F1EEFA",
"fX c #EEF1F3",
"gX c #EFF5FA",
"hX c #F3F3F4",
"jX c #FAF5F4",
"kX c #F5F9F5",
"lX c #FCFDF4",
"zX c #F5F4FB",
"xX c #F9F6FC",
"cX c #F6FBFE",
"vX c #FBFDFD",
/* pixels */
"iXtXeXkXeXfXzXdXqXyXzXxXcXhXhX9X9X9XpXzXvXhXyXuXyX7XuX7XkX9XxXdX",
"wXlXeX9XkXhXpXsXqXjXpX-X%X;X}._.}.|.+X|.;XpXvXhXqXjX9X9X9XzXhXhX",
"jXqX9XhXeX6XhXvXjX XXX`.`.E.9.9.G.P.(.P.^.[.[.pXxXpXjX9XkXpX9XkX",
"sXpXpXfXrXuXjX*XU.I.*XXXp.9 4.(.-X>XP.<.J.J.n.8.:XzX8XsX9XkXvXhX",
"sXhXdXcX6XuX>X` 5.R.p.p.q.e `.P.8.!.Q C.Q.].+X6.) [.vXpXsXzXhXpX",
"yX9XcX8XcX*X( { q.i d.e.0 +.Y.<.$.$.z v.,.).#X' N 6 D.cXpXzXpXxX",
"tXuX0XgX-X9.w s.t.f.d.w.} +.r.<.1.s l g ; B -.Q 1 m 5 J.vXhXjXhX",
"tXeXcX0X8.n.H.s.t.g.d.} _ ! <.W g x A j x d a L h > & % $XkXyXtX",
"hXaXcXM.' L.[ ( @.a._ 1 :.&.C.&.U U G c c v x a ; h : * [ 7XiX1X",
"hXxX2X%.c.K.K.{.4.#.4 F 1.S ~ ^ K P c c v G a x - g m 7.' I.lXiX",
"7XvXC.>.A.z.2X+XF.3.6.<.b.:.j Y P T T v K n x j g > : N 6.[ 9X7X",
"lX>X,.1.h ~ OXK.n.*.W 2.b.C.B d k l ~ S C l l - - ; : * N 6 *XlX",
"cX+XF Z 1.Q.%.N.7.Q D m.M.Q.&.M *.! W W 1 M l g - s ; : < + I.lX",
"vX~.> S :.@X>.j.@Xz.h.;.k.b.Z.r.+.r.4.] 0 M 1 1 l - B @ Q ' 3.lX",
"cX~.z./ n ^ ;.~ OX2X/.B.>.~.3X`.e.u.X.9 _ ! W 1 # > ; & m 3 6.cX",
"cX).~ V G f T B :.x.~ ;.k.W._.G.p.u.X.| e 9 _ ] < # # # & X *.vX",
"vXL.B J H H T U A B U P d : P.XX'.p.+.X.t t e | _ 8 % & & @ *.cX",
"cX(.s c J J v K / I h.S.m.%.P.XXT.e.X.X.y q y o.` 4.6 $ $   *.vX",
"vXOXZ Y R E G n I / h.V.S.oX6.i.5.@.X.@.p y y p.+.) 5 3 m O 6.vX",
"fX3XZ ;.h.P K U I ^ T P Y -.K.I.p.@.q.q.O.o.q.q.5.)   $ = X _.vX",
"zXdX%., V P I I U x T J L ~ N.}.H.a.u 0.0.0.@.` Y.+X=.$ X = >XjX",
"fXxXOX%.k V A ^ P K J l.j Z ,.K.'.R.y.i O.0.@.r.[.6.n.=.  *.vX9X",
"8XcX:XW.4Xk.k A L V K ^ V.h x.c.i.R.i u q q #.( 2 X $ 3 . %XvX9X",
"hXhXcXD.2.aXA.g B A b A -.k h m 7 a...y d.a.7 . + $ +   *.kX9XkX",
"yXhX9XzX<.&.5XA., l ~ Y C B D 4 7 i.| r 5.,X9.5 3 $ . + <XvX8XhX",
"yXyXyXfX8X7.' @XC.z ,.%.%.$.Z 1 3.i.` ( 8 F._.' 4 O . .XlXrXkXpX",
"7XlX7XyXkXpX=.4 ].!.v.).OXM.v.*.r.G.w [ %XL.n.' 5 . |.vX8X9XhXhX",
"jX9XyX9XeXfXpX^.] +X].~.+X=X].$X}.( 2 <.6.' =.4 N %XlXeX9XkXhXhX",
"9XkX9XhXhX9XfXkX%X_.[.+X{.^.J.J.I.`.I.D.8.[ ) J.hXvX9X8XvX9XpXpX",
"jX9XkXhXzXhX9XyXlX8X%X%X{.8._.[.}. X+X^.L.~.-XvXyX9XhXkXpXhXkXkX",
"kXfXpXpXhXhXlX7X9XjXvX0X3X;X-X>X%X[.[.;X8XvXkXuX9XkXhXpXdXsXxX9X",
"9XzXsXxXpXhXqXyXuXyX9XkXcXzXcX9XjXhXvXxXzXhXyXyXyX9XzXdXzXxXsXjX"
};
