/* XPM */
static char *_084e9e22c004acdb0cc31e53756a784mtMWD2NaMEyGlQlT[] = {
/* columns rows colors chars-per-pixel */
"32 32 228 2 ",
"   c #557E9C",
".  c #4F7EAB",
"X  c #517CAD",
"o  c #2E75C7",
"O  c #3979CB",
"+  c #2C7BD1",
"@  c #2B7BDD",
"#  c #2D76D4",
"$  c #327AD4",
"%  c #397BD3",
"&  c #347CDC",
"*  c #3A7AD7",
"=  c #2C7DE3",
"-  c #2A7EE9",
";  c #357EE3",
":  c #347FEB",
">  c #447ECB",
",  c #5A80A5",
"<  c #4C8ABC",
"1  c #4C85B9",
"2  c #558AB7",
"3  c #6591B4",
"4  c #7AA9BD",
"5  c #2E81D6",
"6  c #2E83DC",
"7  c #2F88DC",
"8  c #3483DD",
"9  c #3984DE",
"0  c #3389DF",
"q  c #3A89DF",
"w  c #3987D6",
"e  c #3A90DD",
"r  c #2E82E3",
"t  c #2D82EC",
"y  c #2F88E6",
"u  c #3483E3",
"i  c #3B86E3",
"p  c #3C8BE4",
"a  c #3484EB",
"s  c #3B85E9",
"d  c #358AEA",
"f  c #3B8BEB",
"g  c #348CE5",
"h  c #3F91E3",
"j  c #3C8AF6",
"k  c #4381C1",
"l  c #5B8CC7",
"z  c #548AC8",
"x  c #5B94C9",
"c  c #4483D4",
"v  c #498CD6",
"b  c #4387DC",
"n  c #4188DE",
"m  c #538DD4",
"M  c #4995DE",
"N  c #5594D8",
"B  c #6294CD",
"V  c #6B9CC4",
"C  c #7398C3",
"Z  c #629EDD",
"A  c #679ED6",
"S  c #55A1DD",
"D  c #6FA5CB",
"F  c #7CA5C3",
"G  c #77A7CA",
"H  c #69A6D8",
"J  c #75A8D8",
"K  c #7FB4D9",
"L  c #428BE3",
"P  c #4B8FE4",
"I  c #458CEB",
"U  c #4492E5",
"Y  c #4B93E5",
"T  c #4493EB",
"R  c #4A94EA",
"E  c #4C9AED",
"W  c #4999E4",
"Q  c #5294E4",
"!  c #539CEC",
"~  c #5A9EEA",
"^  c #5799E4",
"/  c #428DF5",
"(  c #4795F3",
")  c #4B94F1",
"_  c #4A99F4",
"`  c #579CF4",
"'  c #609FE4",
"]  c #57A0E6",
"[  c #56A3EC",
"{  c #5BA4EB",
"}  c #5CA8ED",
"|  c #5DA9E5",
" . c #5EA3F4",
".. c #58A5F8",
"X. c #65AAE5",
"o. c #62A4EC",
"O. c #69A6EE",
"+. c #65AAED",
"@. c #6DADEB",
"#. c #67A6E4",
"$. c #75ADE8",
"%. c #6AB0EB",
"&. c #6EB1E6",
"*. c #74B4EB",
"=. c #7CB7EB",
"-. c #77B9EE",
";. c #7CBBEE",
":. c #7DB3E2",
">. c #65AAF2",
",. c #6AABF2",
"<. c #66ABF9",
"1. c #6FB5F5",
"2. c #6BB5FA",
"3. c #73B4F3",
"4. c #7CB5F3",
"5. c #7BBAFD",
"6. c #76B7F7",
"7. c #7EC0FC",
"8. c #82AACC",
"9. c #94AEC6",
"0. c #81AED5",
"q. c #8CAFD5",
"w. c #89B5DB",
"e. c #8ABBDE",
"r. c #89B7D5",
"t. c #94BCDA",
"y. c #92B5D5",
"u. c #A9BFD7",
"i. c #85BBE8",
"p. c #9CBFE5",
"a. c #85BDF2",
"s. c #82BDFD",
"d. c #99C0DE",
"f. c #9DC0D6",
"g. c #A6C5DB",
"h. c #AACADF",
"j. c #BDD8DF",
"k. c #B8CBDC",
"l. c #83C0EE",
"z. c #8FCAEA",
"x. c #94C1E4",
"c. c #92C3ED",
"v. c #9FC6EE",
"b. c #9DCBEE",
"n. c #98C8E8",
"m. c #83C2FC",
"M. c #8AC4FD",
"N. c #8EC8FB",
"B. c #89C5F7",
"V. c #91C6F5",
"C. c #95CBF6",
"Z. c #9DCDF5",
"A. c #93CBFD",
"S. c #9BCCFB",
"D. c #99C4F8",
"F. c #9BD3FE",
"G. c #96DBFF",
"H. c #9AD5FB",
"J. c #A4C9E5",
"K. c #ACCBE4",
"L. c #ADCEEA",
"P. c #A7C7E4",
"I. c #B2CDE4",
"U. c #B4CFEA",
"Y. c #A9D2E9",
"T. c #B4D1E4",
"R. c #BDD3E3",
"E. c #B4D4ED",
"W. c #BBD6EC",
"Q. c #BCDAEC",
"!. c #B4D9E9",
"~. c #AACEF1",
"^. c #A5D3F3",
"/. c #ABD3F3",
"(. c #ABD3FB",
"). c #A5D9FF",
"_. c #ACDCFD",
"`. c #A8D8F7",
"'. c #B4D5F0",
"]. c #BBDAF5",
"[. c #B4DDFD",
"{. c #BADCFB",
"}. c #B7D8F5",
"|. c #ADE2FF",
" X c #AAE6FF",
".X c #B7E2FF",
"XX c #BBE3FD",
"oX c #B6EBFF",
"OX c #BDEBFF",
"+X c #D6E1DD",
"@X c #C3D6E6",
"#X c #C4DCEC",
"$X c #CADCEC",
"%X c #C8DBE4",
"&X c #C3DDF2",
"*X c #C4DEF9",
"=X c #CBDDF1",
"-X c #CBE1ED",
";X c #D5E4ED",
":X c #DDFCEC",
">X c #C4E2F4",
",X c #CCE4F4",
"<X c #CDECF5",
"1X c #C4E3FD",
"2X c #CBE4FB",
"3X c #C3EBFF",
"4X c #CDEBFE",
"5X c #D2E6F3",
"6X c #D4EAF5",
"7X c #DAEBF5",
"8X c #D2E7FA",
"9X c #D3ECFE",
"0X c #DAEEFC",
"qX c #DAE6F2",
"wX c #C4F4FF",
"eX c #CDF1FF",
"rX c #D5F2FF",
"tX c #DCF3FE",
"yX c #DDFCFF",
"uX c #D6F9F9",
"iX c #E4EEED",
"pX c #E4EBF4",
"aX c #E3F4FD",
"sX c #E9F5FD",
"dX c #E5FBFF",
"fX c #EBFDFF",
"gX c #E6F1F7",
"hX c azure",
/* pixels */
"C 8.8.n.OX|.. 2 l l *.3.M w @ a u & * ~ A.oX|.N. XG.G.i.r.Y.uX:X",
"~.3X[.3XyXK 1 M.M.5.5.v o $ d = r ; & % > m z k N N N *.J _.Y.<X",
"K.!.3X.XG J |.F.M.c o # i u - t t a : ; * * % % % $ $ o c N B D.",
">X3XY.D i.M.O.c $ # u u @ t t t - - - : a ; & & @ a j / I P c s.",
"yX3X[.B Z O o 9 8 @ u a r a r r d y y y = = 6 0 6 r - j u ) n 2.",
"J X z > b n R 9 u 8 a @ u = d 6 u 0 7 6 r r 6 6 0 @ j a T p p p ",
"> O % L i i p T U 9 u u f & u 8 q p p u u d 0 + 5 6 d d p p U h ",
"i 9 s u / _ E E W U 9 i i ; u i p R T i u d p 5 8 q u i p q M w ",
"f u a d f T ! } { ^ Y i s s u a L ` ) s f ( u u i i 8 i i L M 2.",
"g g d f T R ! } { { ! R I s r i Y  .` I ) _ p p p ( p L I n v G.",
"0 p h T U Y ~ +.,.,.>.! E p 6 h ] +. .! ..E L T _ T R L n P k m.",
"p h U U Y Q ~ O.6.5.1.o.[ W e W X.%.>.>.2.] Y E E T E P Q m B C.",
"L U R ! ! ~ o.O.6.m.m.3.%.| M S *.-.3.6.5.o.] [ ....!  .N l [.3X",
"I U E [  .>.>.,.@.s.A.B.-.&.X.X.;.l.a.N.M.@.+.+.[ [ <.^ z C 2XdX",
"I R E [ } >.1.6.3.;.A.F.V.a.4.4.V.C.Z.).A.=.;.*.3.1.#.A [.tX;XiX",
"P Y Y ^ { ,.6.7.M.i.C.).).S.D.D.(._.}.3X^.c.V.l.-.H Z oXyXyXfX+X",
"v v N ^ N @.3.m.A.C.Z._.[.{.~.}.2X6X6X2X].`.).N.*.&.J ).OX3X2X@X",
"M.3.Z ' o.#.@.=.V._..XXX4X4X2X9XqX7XaX0X1X1X_.C.a.B.:.Z.OXJ.T.dX",
"wXoXH #.3.5.6.M.D.[.1X,XtXaXaXaXfXfXfXyXrXeX.XZ.S.i.J b.Y.f.I.Q.",
"wXn.2 x Z @.a.S.(.].2XaXaXfXhXdXdXdXtXyXyXrX3XXXJ.t.F ~.}.1X4X,X",
"wX`.z.D F.A.C.b.].2XtXaXdXrX4X3X'.3X1X1X*X#X5X,X,XT.P.1X1XL.h.g.",
"4 r._.K C.c.b.XX1X9X0XQ.rX/.e.e.n.XX{.K.u.k.7XaXgX7XaX*XU.9.g.Q.",
"d.  3 0.G w.x./.{.'.E.t.c.$.x H t.Q.rX9X2X8X5X7X-X5XR.9.&XtXtXfX",
"1Xy.q.n.`..X^..Xt.F 8.0.. 1 1 :.yX9XrXR.R.$XR.tX0XdXhX8X#XdX<XR.",
"yX1XJ.F F ^.^.`.|.n.OXwX/.y.K.rX9X,X@X@X5X7X7X;XqXsXaXdXtX2XK.P.",
"3X].E.XX/.G 2 G z.H.Z.x.t.].&X#X5X$X7XfXhXfX0X@X@X,XtXtX#XT.E.{.",
"P.{.4X3XyXeX0.D A.|.J J 0.t.4XtXsXpXgXaX5X-X&XU.W.T.2XtX<X#X&XW.",
"w.(.v.q.x.(.Z.i.B B x 2 0.{.4XtXpXpXsXgX-X#X*X].'.E.tXdXrX#X&XI.",
"1 < x 2 V w.x.[.v.X , y.rXtXj.%X%XqX7X5X6X<X&XW.W.>XtX9X>XU.L.J.",
"< < 2 D e.b.3XeX].K.g.4X<X#X6XtXtXfXaX,X4X2X&X&X>X,X&XW.].'.L.J.",
"{./.1X3XeX1X>X9X4X9XtX0X2X9X4X9X0XaXtX2X1X].Q.>X#X>X&X*X].].'.E.",
"tX9X2X2X<XR.#X,X#X#X=X2X9X*X1X1X,X$X#X].].].Q.Q.#XQ.&X2X*X1X].E."
};
