/* XPM */
static char *a251ce8e0ee847739c714ef8aca114addbF8egN6iEAN94mS[] = {
/* columns rows colors chars-per-pixel */
"32 32 231 2 ",
"   c #0F0200",
".  c #140201",
"X  c #1C0201",
"o  c #1F0802",
"O  c #220401",
"+  c #2B0301",
"@  c #240904",
"#  c #2C0B04",
"$  c #2C0D08",
"%  c #330301",
"&  c #3C0300",
"*  c #340A02",
"=  c #3B0C02",
"-  c #300D09",
";  c #3C1108",
":  c #410600",
">  c #440401",
",  c #4B0400",
"<  c #420900",
"1  c #450A00",
"2  c #410D01",
"3  c #460E02",
"4  c #450C02",
"5  c #490D00",
"6  c #4C0C01",
"7  c #460C0A",
"8  c #520301",
"9  c #5C0200",
"0  c #540C01",
"q  c #5D0C00",
"w  c #451002",
"e  c #461105",
"r  c #4F1504",
"t  c #4C1103",
"y  c #471109",
"u  c #4C140A",
"i  c #4E190B",
"p  c #521202",
"a  c #5B1202",
"s  c #5E1A02",
"d  c #541509",
"f  c #58190B",
"g  c #5D0110",
"h  c #4F1910",
"j  c #5B1E12",
"k  c #521C10",
"l  c #620100",
"z  c #6B0101",
"x  c #630E00",
"c  c #6C0C02",
"v  c #6F060B",
"b  c #61010D",
"n  c #740101",
"m  c #7B0200",
"M  c #740C02",
"N  c #7B0B01",
"B  c #760D0A",
"V  c #7E0E0B",
"C  c #7F0409",
"Z  c #641501",
"A  c #6A1300",
"S  c #631A03",
"D  c #6C1B01",
"F  c #6C1F0D",
"G  c #751404",
"H  c #7C1201",
"J  c #721B01",
"K  c #76190A",
"L  c #7D0F12",
"P  c #7B1C12",
"I  c #77240B",
"U  c #7B2101",
"Y  c #652314",
"T  c #712D1A",
"R  c #830400",
"E  c #8B0400",
"W  c #840B00",
"Q  c #8B0B01",
"!  c #840D0A",
"~  c #940E00",
"^  c #9A0E03",
"/  c #970300",
"(  c #811301",
")  c #8C1303",
"_  c #8D1A00",
"`  c #8C1C0C",
"'  c #871907",
"]  c #921300",
"[  c #9A1500",
"{  c #921B01",
"}  c #9E1E00",
"|  c #92160D",
" . c #9A1409",
".. c #93190A",
"X. c #8A1F1A",
"o. c #991B12",
"O. c #AA1D0C",
"+. c #A51703",
"@. c #AB1B15",
"#. c #852501",
"$. c #8D2300",
"%. c #892902",
"&. c #812C0E",
"*. c #852807",
"=. c #9B2501",
"-. c #972C01",
";. c #9B2C00",
":. c #9B2C09",
">. c #982609",
",. c #993508",
"<. c #8C2715",
"1. c #9B2917",
"2. c #863211",
"3. c #953314",
"4. c #953E1C",
"5. c #9B3D1B",
"6. c #983716",
"7. c #A32400",
"8. c #AA2600",
"9. c #A42D03",
"0. c #A92C00",
"q. c #A42B0C",
"w. c #AB270B",
"e. c #B32E01",
"r. c #A43300",
"t. c #AD3502",
"y. c #AB3B00",
"u. c #AA340C",
"i. c #B23401",
"p. c #B43B02",
"a. c #BC3C01",
"s. c #B73C0B",
"d. c #BC3C0B",
"f. c #A0241A",
"g. c #B62D14",
"h. c #AB3C1D",
"j. c #A73515",
"k. c #BC3B1A",
"l. c #B43419",
"z. c #9D2B20",
"x. c #9C3924",
"c. c #B83829",
"v. c #A92926",
"b. c #C13F0B",
"n. c #C23D12",
"m. c #C23A22",
"M. c #C63927",
"N. c #99401E",
"B. c #BC4C05",
"V. c #BC420B",
"C. c #B54806",
"Z. c #A6431B",
"A. c #B54213",
"S. c #BB4215",
"D. c #BD4A14",
"F. c #B3481C",
"G. c #9F4A26",
"H. c #AA4827",
"J. c #B85930",
"K. c #BD6034",
"L. c #C54808",
"P. c #CB550D",
"I. c #CF5C0B",
"U. c #C45409",
"Y. c #CF461B",
"T. c #C34C19",
"R. c #C64916",
"E. c #C65910",
"W. c #C5521C",
"Q. c #CB541A",
"!. c #CD5C1C",
"~. c #C85816",
"^. c #D45313",
"/. c #D6581C",
"(. c #D45A07",
"). c #CD630F",
"_. c #D6661B",
"`. c #D66214",
"'. c #DE711E",
"]. c #E1671C",
"[. c #C64527",
"{. c #D34F25",
"}. c #CF5A2C",
"|. c #C95624",
" X c #DE532D",
".X c #D45A2A",
"XX c #D95A24",
"oX c #D35B32",
"OX c #DA5C33",
"+X c #E15F26",
"@X c #E45930",
"#X c #CD6120",
"$X c #DC6522",
"%X c #D96926",
"&X c #DE7A24",
"*X c #D66C3C",
"=X c #E16522",
"-X c #EA6E2C",
";X c #E96A29",
":X c #F16D2F",
">X c #EC7326",
",X c #E3732B",
"<X c #E47828",
"1X c #E86937",
"2X c #EE7D34",
"3X c #E77836",
"4X c #F67B3B",
"5X c #D77143",
"6X c #E66C42",
"7X c #E57C41",
"8X c #E77B4A",
"9X c #F2784F",
"0X c #FF7651",
"qX c #F1812D",
"wX c #EF8439",
"eX c #F28C3F",
"rX c #F68638",
"tX c #F6923A",
"yX c #FA953C",
"uX c #F8973A",
"iX c #E88527",
"pX c #E78045",
"aX c #F18D42",
"sX c #FF9844",
"dX c #FF8555",
"fX c #FC905F",
"gX c #FFA34D",
"hX c #FFAA4B",
"jX c #FFA553",
"kX c #FFAC56",
"lX c #FFAE66",
/* pixels */
". . . . . . . . . . . . . . . . . X X X X O O O O O O O X X O @ ",
". . . . . . . . . . . . . . . . X X X X O O O O X X X X X X X X ",
". . . . . . X . . . . . . X X . X o @ @ @ @ O O O O O X X X X O ",
". . . . . . . . . . . X . . X X O @ @ @ $ $ @ @ + O O O X O O @ ",
"X X X X X O O . . . . . . X o X @ # $ $ - - # # + + + O O O + # ",
"X X X X X X O X X X X O O @ # # * * * = = = * * * * * % % * = ; ",
". . . . . X O O O + + + % * * = = = = 2 2 2 2 2 4 w w w w e u i ",
". X X X O O + + * * * & & & = < : < < < 1 5 t t t t r r r r p r ",
"O O O + O + # % % % * % : : 7 1 1 5 6 5 1 5 p f j r p t t 1 t t ",
"+ + + + + + % & : : & 1 , 0 6 0 p p 6 1 & > 6 f d 5 5 1 4 5 t 4 ",
"+ % % % & & > 6 0 F D D J 4.4.&.T Y d 1 : : 1 4 e e 4 4 < 3 3 < ",
"& % & & & 1 0 a , 0 J &.N.Z.5.2.S f 5 1 1 4 1 & < y u h 4 3 3 y ",
"i = 2 e 4 u j d > > 0 a Y Z q 8 , 6 p p p t 5 4 < 4 e k e 3 y h ",
"Y 6 5 p t f f 6 , 6 8 0 0 s a a 8 0 a a p p p p t 4 1 t 4 4 4 e ",
"Z q 0 q x x x q x Z A I A x 9 q x Z Z Z S S s a s p p t 6 5 5 1 ",
"x K P P P K G <.<.x.H.3.3.3.5.3.*.6.G.G.N.2.I D Z Z D a a 0 0 6 ",
"c x P B B X.<.N ( 1.h.q.j.j.h.h.6.J.H.K.J.,.%.%.#.#.%.U J D q q ",
"G M X.V n n ) { ) R W { { _ q.{ _ ' $.-.-.;.W.A.;.F.*XF.,.#.A 9 ",
"z l M V ! ) ..f.o.c.q.=.A.9.=._ W h.S.i.L.t.P.$X!.~.pXpX5X3.c c ",
"v l z H z.1...) f.c.[.oX.XT..X|.u.k.p.P.P.I.`.>XP.E.3X7X*Xj.H B ",
"b 9 l M <.` ) | v.Q 7.[.{.XX:X^.b.i.p.2XeXgXuXiXiX).B.C.A.u.{ N ",
"g 9 l c M l n W m R Q Q [ [ a.>X^.L.p.#XaXjXhXhXsX'.P.Q.T.S.T.D.",
"8 8 9 c z l N N N m m m m W !.jX-Xp.7.r.s.R._.I.`.B.C.Q.|.!.2X%X",
"v z M B n n ` N n m m W R =.,XqX`.0.8.d.d.V.$X,XU.y.r.y.;.r.rXsX",
">.l...m m m m E ~ E ~ m.g.R.].(.i.8.a.Q.P.%X<XyXtX&X<XE.y.!.$X=X",
"S.] u.q.R R w.7.Y.Y.@X X0XdX>XL.^.4X;X2X_.<XyXtXtXjXsX,XC.#XW.Q.",
"D.W.3XfXF.:.A.V.XX;X+X/.XX+X=XP.,XlXwXgXkXjXuXyXqX2X4X1XT.;.-.Z.",
"#XC.7X5XZ.-.r.W.Q.a.-XXXY.d.s.3X,X!.C.C.eXE.2X_.$XV.R.u.q.N M H ",
"s.=.=.>.` n _ *X9X] s.OX=.q._ 9.i./.L.e.{.d.R.7.7.) Q n m ! n ! ",
";._ ) N n N ( }.6XQ ] } Q m W W } e.e.+.1X X+.g.c.R o.| z n C n ",
"|.:.` z z ( *X|.0.~ w.M.^  . .l.oX6X1X7.} n.~ g.O.^ O.E Q m z z ",
"$.H z z z ' 8X%Xt.k.E @.@.E R ] q.}.|.t.Q.i.w.O./ +.M.m.R m V L "
};
